<mxfile host="app.diagrams.net" modified="2022-10-16T04:06:47.871Z" agent="5.0 (Windows NT 10.0; Win64; x64) AppleWebKit/537.36 (KHTML, like Gecko) Chrome/105.0.0.0 Safari/537.36" etag="0nO4hSzovxU2n_sdTZ-F" version="20.4.0" type="github">
  <diagram name="Page-1" id="2c0d36ab-eaac-3732-788b-9136903baeff">
    <mxGraphModel dx="1221" dy="672" grid="1" gridSize="10" guides="1" tooltips="1" connect="1" arrows="1" fold="1" page="1" pageScale="1.5" pageWidth="1169" pageHeight="827" math="0" shadow="0">
      <root>
        <mxCell id="0" />
        <mxCell id="1" parent="0" />
        <mxCell id="dmZce5G8_erc-VPVWdEy-135" value="" style="shape=cylinder3;whiteSpace=wrap;html=1;boundedLbl=1;backgroundOutline=1;size=15;dashed=1;sketch=1;hachureGap=4;jiggle=2;fontFamily=Architects Daughter;fontSource=https%3A%2F%2Ffonts.googleapis.com%2Fcss%3Ffamily%3DArchitects%2BDaughter;fontSize=20;" vertex="1" parent="1">
          <mxGeometry x="1160" y="90" width="60" height="80" as="geometry" />
        </mxCell>
        <mxCell id="dmZce5G8_erc-VPVWdEy-136" value="nameserver 1" style="text;html=1;strokeColor=none;fillColor=none;align=center;verticalAlign=middle;whiteSpace=wrap;rounded=0;dashed=1;sketch=1;hachureGap=4;jiggle=2;fontFamily=Architects Daughter;fontSource=https%3A%2F%2Ffonts.googleapis.com%2Fcss%3Ffamily%3DArchitects%2BDaughter;fontSize=20;" vertex="1" parent="1">
          <mxGeometry x="1130" y="190" width="140" as="geometry" />
        </mxCell>
        <mxCell id="dmZce5G8_erc-VPVWdEy-137" value="" style="shape=cylinder3;whiteSpace=wrap;html=1;boundedLbl=1;backgroundOutline=1;size=15;dashed=1;sketch=1;hachureGap=4;jiggle=2;fontFamily=Architects Daughter;fontSource=https%3A%2F%2Ffonts.googleapis.com%2Fcss%3Ffamily%3DArchitects%2BDaughter;fontSize=20;" vertex="1" parent="1">
          <mxGeometry x="1320" y="90" width="60" height="80" as="geometry" />
        </mxCell>
        <mxCell id="dmZce5G8_erc-VPVWdEy-138" value="nameserver 2" style="text;html=1;strokeColor=none;fillColor=none;align=center;verticalAlign=middle;whiteSpace=wrap;rounded=0;dashed=1;sketch=1;hachureGap=4;jiggle=2;fontFamily=Architects Daughter;fontSource=https%3A%2F%2Ffonts.googleapis.com%2Fcss%3Ffamily%3DArchitects%2BDaughter;fontSize=20;" vertex="1" parent="1">
          <mxGeometry x="1290" y="190" width="140" as="geometry" />
        </mxCell>
        <mxCell id="dmZce5G8_erc-VPVWdEy-139" value="" style="shape=cylinder3;whiteSpace=wrap;html=1;boundedLbl=1;backgroundOutline=1;size=15;dashed=1;sketch=1;hachureGap=4;jiggle=2;fontFamily=Architects Daughter;fontSource=https%3A%2F%2Ffonts.googleapis.com%2Fcss%3Ffamily%3DArchitects%2BDaughter;fontSize=20;" vertex="1" parent="1">
          <mxGeometry x="1480" y="90" width="60" height="80" as="geometry" />
        </mxCell>
        <mxCell id="dmZce5G8_erc-VPVWdEy-140" value="nameserver 3" style="text;html=1;strokeColor=none;fillColor=none;align=center;verticalAlign=middle;whiteSpace=wrap;rounded=0;dashed=1;sketch=1;hachureGap=4;jiggle=2;fontFamily=Architects Daughter;fontSource=https%3A%2F%2Ffonts.googleapis.com%2Fcss%3Ffamily%3DArchitects%2BDaughter;fontSize=20;" vertex="1" parent="1">
          <mxGeometry x="1450" y="190" width="140" as="geometry" />
        </mxCell>
        <mxCell id="dmZce5G8_erc-VPVWdEy-181" style="edgeStyle=orthogonalEdgeStyle;curved=1;rounded=0;sketch=1;hachureGap=4;jiggle=2;orthogonalLoop=1;jettySize=auto;html=1;entryX=0.5;entryY=0;entryDx=0;entryDy=0;entryPerimeter=0;fontFamily=Architects Daughter;fontSource=https%3A%2F%2Ffonts.googleapis.com%2Fcss%3Ffamily%3DArchitects%2BDaughter;fontSize=16;exitX=0.5;exitY=0;exitDx=0;exitDy=0;exitPerimeter=0;startArrow=classic;startFill=1;" edge="1" parent="1" source="dmZce5G8_erc-VPVWdEy-141" target="dmZce5G8_erc-VPVWdEy-135">
          <mxGeometry relative="1" as="geometry" />
        </mxCell>
        <mxCell id="dmZce5G8_erc-VPVWdEy-141" value="" style="shape=cylinder3;whiteSpace=wrap;html=1;boundedLbl=1;backgroundOutline=1;size=15;dashed=1;sketch=1;hachureGap=4;jiggle=2;fontFamily=Architects Daughter;fontSource=https%3A%2F%2Ffonts.googleapis.com%2Fcss%3Ffamily%3DArchitects%2BDaughter;fontSize=20;" vertex="1" parent="1">
          <mxGeometry x="547" y="440" width="60" height="80" as="geometry" />
        </mxCell>
        <mxCell id="dmZce5G8_erc-VPVWdEy-142" value="pruducer1" style="text;html=1;strokeColor=none;fillColor=none;align=center;verticalAlign=middle;whiteSpace=wrap;rounded=0;dashed=1;sketch=1;hachureGap=4;jiggle=2;fontFamily=Architects Daughter;fontSource=https%3A%2F%2Ffonts.googleapis.com%2Fcss%3Ffamily%3DArchitects%2BDaughter;fontSize=20;" vertex="1" parent="1">
          <mxGeometry x="510" y="540" width="140" as="geometry" />
        </mxCell>
        <mxCell id="dmZce5G8_erc-VPVWdEy-180" style="edgeStyle=orthogonalEdgeStyle;curved=1;rounded=0;sketch=1;hachureGap=4;jiggle=2;orthogonalLoop=1;jettySize=auto;html=1;entryX=0.5;entryY=0;entryDx=0;entryDy=0;entryPerimeter=0;fontFamily=Architects Daughter;fontSource=https%3A%2F%2Ffonts.googleapis.com%2Fcss%3Ffamily%3DArchitects%2BDaughter;fontSize=16;exitX=0.5;exitY=0;exitDx=0;exitDy=0;exitPerimeter=0;startArrow=classic;startFill=1;" edge="1" parent="1" source="dmZce5G8_erc-VPVWdEy-143" target="dmZce5G8_erc-VPVWdEy-137">
          <mxGeometry relative="1" as="geometry" />
        </mxCell>
        <mxCell id="dmZce5G8_erc-VPVWdEy-143" value="" style="shape=cylinder3;whiteSpace=wrap;html=1;boundedLbl=1;backgroundOutline=1;size=15;dashed=1;sketch=1;hachureGap=4;jiggle=2;fontFamily=Architects Daughter;fontSource=https%3A%2F%2Ffonts.googleapis.com%2Fcss%3Ffamily%3DArchitects%2BDaughter;fontSize=20;" vertex="1" parent="1">
          <mxGeometry x="657" y="440" width="60" height="80" as="geometry" />
        </mxCell>
        <mxCell id="dmZce5G8_erc-VPVWdEy-144" value="pruducer2" style="text;html=1;strokeColor=none;fillColor=none;align=center;verticalAlign=middle;whiteSpace=wrap;rounded=0;dashed=1;sketch=1;hachureGap=4;jiggle=2;fontFamily=Architects Daughter;fontSource=https%3A%2F%2Ffonts.googleapis.com%2Fcss%3Ffamily%3DArchitects%2BDaughter;fontSize=20;" vertex="1" parent="1">
          <mxGeometry x="620" y="540" width="140" as="geometry" />
        </mxCell>
        <mxCell id="dmZce5G8_erc-VPVWdEy-179" style="edgeStyle=orthogonalEdgeStyle;curved=1;rounded=0;sketch=1;hachureGap=4;jiggle=2;orthogonalLoop=1;jettySize=auto;html=1;entryX=0.5;entryY=0;entryDx=0;entryDy=0;entryPerimeter=0;fontFamily=Architects Daughter;fontSource=https%3A%2F%2Ffonts.googleapis.com%2Fcss%3Ffamily%3DArchitects%2BDaughter;fontSize=16;exitX=0.5;exitY=0;exitDx=0;exitDy=0;exitPerimeter=0;startArrow=classic;startFill=1;" edge="1" parent="1" source="dmZce5G8_erc-VPVWdEy-145" target="dmZce5G8_erc-VPVWdEy-135">
          <mxGeometry relative="1" as="geometry" />
        </mxCell>
        <mxCell id="dmZce5G8_erc-VPVWdEy-191" style="edgeStyle=orthogonalEdgeStyle;curved=1;rounded=0;sketch=1;hachureGap=4;jiggle=2;orthogonalLoop=1;jettySize=auto;html=1;entryX=0;entryY=0.5;entryDx=0;entryDy=0;entryPerimeter=0;fontFamily=Architects Daughter;fontSource=https%3A%2F%2Ffonts.googleapis.com%2Fcss%3Ffamily%3DArchitects%2BDaughter;fontSize=16;startArrow=classic;startFill=1;" edge="1" parent="1" source="dmZce5G8_erc-VPVWdEy-145" target="dmZce5G8_erc-VPVWdEy-149">
          <mxGeometry relative="1" as="geometry" />
        </mxCell>
        <mxCell id="dmZce5G8_erc-VPVWdEy-145" value="" style="shape=cylinder3;whiteSpace=wrap;html=1;boundedLbl=1;backgroundOutline=1;size=15;dashed=1;sketch=1;hachureGap=4;jiggle=2;fontFamily=Architects Daughter;fontSource=https%3A%2F%2Ffonts.googleapis.com%2Fcss%3Ffamily%3DArchitects%2BDaughter;fontSize=20;" vertex="1" parent="1">
          <mxGeometry x="767" y="440" width="60" height="80" as="geometry" />
        </mxCell>
        <mxCell id="dmZce5G8_erc-VPVWdEy-146" value="pruducer3" style="text;html=1;strokeColor=none;fillColor=none;align=center;verticalAlign=middle;whiteSpace=wrap;rounded=0;dashed=1;sketch=1;hachureGap=4;jiggle=2;fontFamily=Architects Daughter;fontSource=https%3A%2F%2Ffonts.googleapis.com%2Fcss%3Ffamily%3DArchitects%2BDaughter;fontSize=20;" vertex="1" parent="1">
          <mxGeometry x="731" y="540" width="140" as="geometry" />
        </mxCell>
        <mxCell id="dmZce5G8_erc-VPVWdEy-165" style="edgeStyle=orthogonalEdgeStyle;curved=1;rounded=0;sketch=1;hachureGap=4;jiggle=2;orthogonalLoop=1;jettySize=auto;html=1;fontFamily=Architects Daughter;fontSource=https%3A%2F%2Ffonts.googleapis.com%2Fcss%3Ffamily%3DArchitects%2BDaughter;fontSize=16;startArrow=classic;startFill=1;" edge="1" parent="1" source="dmZce5G8_erc-VPVWdEy-149" target="dmZce5G8_erc-VPVWdEy-136">
          <mxGeometry relative="1" as="geometry" />
        </mxCell>
        <mxCell id="dmZce5G8_erc-VPVWdEy-166" style="edgeStyle=orthogonalEdgeStyle;curved=1;rounded=0;sketch=1;hachureGap=4;jiggle=2;orthogonalLoop=1;jettySize=auto;html=1;exitX=0.5;exitY=0;exitDx=0;exitDy=0;exitPerimeter=0;fontFamily=Architects Daughter;fontSource=https%3A%2F%2Ffonts.googleapis.com%2Fcss%3Ffamily%3DArchitects%2BDaughter;fontSize=16;startArrow=classic;startFill=1;" edge="1" parent="1" source="dmZce5G8_erc-VPVWdEy-149" target="dmZce5G8_erc-VPVWdEy-138">
          <mxGeometry relative="1" as="geometry" />
        </mxCell>
        <mxCell id="dmZce5G8_erc-VPVWdEy-167" style="edgeStyle=orthogonalEdgeStyle;curved=1;rounded=0;sketch=1;hachureGap=4;jiggle=2;orthogonalLoop=1;jettySize=auto;html=1;exitX=0.5;exitY=0;exitDx=0;exitDy=0;exitPerimeter=0;fontFamily=Architects Daughter;fontSource=https%3A%2F%2Ffonts.googleapis.com%2Fcss%3Ffamily%3DArchitects%2BDaughter;fontSize=16;startArrow=classic;startFill=1;" edge="1" parent="1" source="dmZce5G8_erc-VPVWdEy-149" target="dmZce5G8_erc-VPVWdEy-140">
          <mxGeometry relative="1" as="geometry" />
        </mxCell>
        <mxCell id="dmZce5G8_erc-VPVWdEy-186" value="data&amp;nbsp;sync" style="edgeStyle=orthogonalEdgeStyle;curved=1;rounded=0;sketch=1;hachureGap=4;jiggle=2;orthogonalLoop=1;jettySize=auto;html=1;entryX=0;entryY=0.5;entryDx=0;entryDy=0;entryPerimeter=0;fontFamily=Architects Daughter;fontSource=https%3A%2F%2Ffonts.googleapis.com%2Fcss%3Ffamily%3DArchitects%2BDaughter;fontSize=16;exitX=0;exitY=0.5;exitDx=0;exitDy=0;exitPerimeter=0;" edge="1" parent="1" source="dmZce5G8_erc-VPVWdEy-149" target="dmZce5G8_erc-VPVWdEy-151">
          <mxGeometry relative="1" as="geometry" />
        </mxCell>
        <mxCell id="dmZce5G8_erc-VPVWdEy-149" value="" style="shape=cylinder3;whiteSpace=wrap;html=1;boundedLbl=1;backgroundOutline=1;size=15;dashed=1;sketch=1;hachureGap=4;jiggle=2;fontFamily=Architects Daughter;fontSource=https%3A%2F%2Ffonts.googleapis.com%2Fcss%3Ffamily%3DArchitects%2BDaughter;fontSize=20;" vertex="1" parent="1">
          <mxGeometry x="1200" y="340" width="60" height="80" as="geometry" />
        </mxCell>
        <mxCell id="dmZce5G8_erc-VPVWdEy-150" value="master 1" style="text;html=1;strokeColor=none;fillColor=none;align=center;verticalAlign=middle;whiteSpace=wrap;rounded=0;dashed=1;sketch=1;hachureGap=4;jiggle=2;fontFamily=Architects Daughter;fontSource=https%3A%2F%2Ffonts.googleapis.com%2Fcss%3Ffamily%3DArchitects%2BDaughter;fontSize=20;" vertex="1" parent="1">
          <mxGeometry x="1170" y="440" width="140" as="geometry" />
        </mxCell>
        <mxCell id="dmZce5G8_erc-VPVWdEy-173" value="routing&amp;nbsp;info" style="edgeStyle=orthogonalEdgeStyle;curved=1;rounded=0;sketch=1;hachureGap=4;jiggle=2;orthogonalLoop=1;jettySize=auto;html=1;fontFamily=Architects Daughter;fontSource=https%3A%2F%2Ffonts.googleapis.com%2Fcss%3Ffamily%3DArchitects%2BDaughter;fontSize=16;startArrow=classic;startFill=1;" edge="1" parent="1" source="dmZce5G8_erc-VPVWdEy-151">
          <mxGeometry relative="1" as="geometry">
            <mxPoint x="1140" y="200" as="targetPoint" />
          </mxGeometry>
        </mxCell>
        <mxCell id="dmZce5G8_erc-VPVWdEy-174" style="edgeStyle=orthogonalEdgeStyle;curved=1;rounded=0;sketch=1;hachureGap=4;jiggle=2;orthogonalLoop=1;jettySize=auto;html=1;fontFamily=Architects Daughter;fontSource=https%3A%2F%2Ffonts.googleapis.com%2Fcss%3Ffamily%3DArchitects%2BDaughter;fontSize=16;startArrow=classic;startFill=1;" edge="1" parent="1" source="dmZce5G8_erc-VPVWdEy-151">
          <mxGeometry relative="1" as="geometry">
            <mxPoint x="1360" y="200" as="targetPoint" />
          </mxGeometry>
        </mxCell>
        <mxCell id="dmZce5G8_erc-VPVWdEy-175" style="edgeStyle=orthogonalEdgeStyle;curved=1;rounded=0;sketch=1;hachureGap=4;jiggle=2;orthogonalLoop=1;jettySize=auto;html=1;fontFamily=Architects Daughter;fontSource=https%3A%2F%2Ffonts.googleapis.com%2Fcss%3Ffamily%3DArchitects%2BDaughter;fontSize=16;startArrow=classic;startFill=1;" edge="1" parent="1" source="dmZce5G8_erc-VPVWdEy-151">
          <mxGeometry relative="1" as="geometry">
            <mxPoint x="1520" y="200" as="targetPoint" />
          </mxGeometry>
        </mxCell>
        <mxCell id="dmZce5G8_erc-VPVWdEy-151" value="" style="shape=cylinder3;whiteSpace=wrap;html=1;boundedLbl=1;backgroundOutline=1;size=15;dashed=1;sketch=1;hachureGap=4;jiggle=2;fontFamily=Architects Daughter;fontSource=https%3A%2F%2Ffonts.googleapis.com%2Fcss%3Ffamily%3DArchitects%2BDaughter;fontSize=20;" vertex="1" parent="1">
          <mxGeometry x="1200" y="490" width="60" height="80" as="geometry" />
        </mxCell>
        <mxCell id="dmZce5G8_erc-VPVWdEy-152" value="slave 1" style="text;html=1;strokeColor=none;fillColor=none;align=center;verticalAlign=middle;whiteSpace=wrap;rounded=0;dashed=1;sketch=1;hachureGap=4;jiggle=2;fontFamily=Architects Daughter;fontSource=https%3A%2F%2Ffonts.googleapis.com%2Fcss%3Ffamily%3DArchitects%2BDaughter;fontSize=20;" vertex="1" parent="1">
          <mxGeometry x="1170" y="590" width="140" as="geometry" />
        </mxCell>
        <mxCell id="dmZce5G8_erc-VPVWdEy-176" style="edgeStyle=orthogonalEdgeStyle;curved=1;rounded=0;sketch=1;hachureGap=4;jiggle=2;orthogonalLoop=1;jettySize=auto;html=1;fontFamily=Architects Daughter;fontSource=https%3A%2F%2Ffonts.googleapis.com%2Fcss%3Ffamily%3DArchitects%2BDaughter;fontSize=16;" edge="1" parent="1" source="dmZce5G8_erc-VPVWdEy-153">
          <mxGeometry relative="1" as="geometry">
            <mxPoint x="1520" y="200" as="targetPoint" />
          </mxGeometry>
        </mxCell>
        <mxCell id="dmZce5G8_erc-VPVWdEy-177" style="edgeStyle=orthogonalEdgeStyle;curved=1;rounded=0;sketch=1;hachureGap=4;jiggle=2;orthogonalLoop=1;jettySize=auto;html=1;fontFamily=Architects Daughter;fontSource=https%3A%2F%2Ffonts.googleapis.com%2Fcss%3Ffamily%3DArchitects%2BDaughter;fontSize=16;startArrow=classic;startFill=1;" edge="1" parent="1" source="dmZce5G8_erc-VPVWdEy-153">
          <mxGeometry relative="1" as="geometry">
            <mxPoint x="1360" y="200" as="targetPoint" />
          </mxGeometry>
        </mxCell>
        <mxCell id="dmZce5G8_erc-VPVWdEy-178" style="edgeStyle=orthogonalEdgeStyle;curved=1;rounded=0;sketch=1;hachureGap=4;jiggle=2;orthogonalLoop=1;jettySize=auto;html=1;fontFamily=Architects Daughter;fontSource=https%3A%2F%2Ffonts.googleapis.com%2Fcss%3Ffamily%3DArchitects%2BDaughter;fontSize=16;startArrow=classic;startFill=1;" edge="1" parent="1" source="dmZce5G8_erc-VPVWdEy-153">
          <mxGeometry relative="1" as="geometry">
            <mxPoint x="1200" y="200" as="targetPoint" />
          </mxGeometry>
        </mxCell>
        <mxCell id="dmZce5G8_erc-VPVWdEy-153" value="" style="shape=cylinder3;whiteSpace=wrap;html=1;boundedLbl=1;backgroundOutline=1;size=15;dashed=1;sketch=1;hachureGap=4;jiggle=2;fontFamily=Architects Daughter;fontSource=https%3A%2F%2Ffonts.googleapis.com%2Fcss%3Ffamily%3DArchitects%2BDaughter;fontSize=20;" vertex="1" parent="1">
          <mxGeometry x="1390" y="490" width="60" height="80" as="geometry" />
        </mxCell>
        <mxCell id="dmZce5G8_erc-VPVWdEy-154" value="slave 2" style="text;html=1;strokeColor=none;fillColor=none;align=center;verticalAlign=middle;whiteSpace=wrap;rounded=0;dashed=1;sketch=1;hachureGap=4;jiggle=2;fontFamily=Architects Daughter;fontSource=https%3A%2F%2Ffonts.googleapis.com%2Fcss%3Ffamily%3DArchitects%2BDaughter;fontSize=20;" vertex="1" parent="1">
          <mxGeometry x="1360" y="590" width="140" as="geometry" />
        </mxCell>
        <mxCell id="dmZce5G8_erc-VPVWdEy-183" style="edgeStyle=orthogonalEdgeStyle;curved=1;rounded=0;sketch=1;hachureGap=4;jiggle=2;orthogonalLoop=1;jettySize=auto;html=1;entryX=0.5;entryY=0;entryDx=0;entryDy=0;entryPerimeter=0;fontFamily=Architects Daughter;fontSource=https%3A%2F%2Ffonts.googleapis.com%2Fcss%3Ffamily%3DArchitects%2BDaughter;fontSize=16;exitX=0.5;exitY=0;exitDx=0;exitDy=0;exitPerimeter=0;" edge="1" parent="1" source="dmZce5G8_erc-VPVWdEy-155" target="dmZce5G8_erc-VPVWdEy-139">
          <mxGeometry relative="1" as="geometry" />
        </mxCell>
        <mxCell id="dmZce5G8_erc-VPVWdEy-192" style="edgeStyle=orthogonalEdgeStyle;curved=1;rounded=0;sketch=1;hachureGap=4;jiggle=2;orthogonalLoop=1;jettySize=auto;html=1;entryX=1;entryY=0.5;entryDx=0;entryDy=0;entryPerimeter=0;fontFamily=Architects Daughter;fontSource=https%3A%2F%2Ffonts.googleapis.com%2Fcss%3Ffamily%3DArchitects%2BDaughter;fontSize=16;startArrow=classic;startFill=1;" edge="1" parent="1" source="dmZce5G8_erc-VPVWdEy-155" target="dmZce5G8_erc-VPVWdEy-163">
          <mxGeometry relative="1" as="geometry" />
        </mxCell>
        <mxCell id="dmZce5G8_erc-VPVWdEy-193" style="edgeStyle=orthogonalEdgeStyle;curved=1;rounded=0;sketch=1;hachureGap=4;jiggle=2;orthogonalLoop=1;jettySize=auto;html=1;exitX=0;exitY=0.5;exitDx=0;exitDy=0;exitPerimeter=0;fontFamily=Architects Daughter;fontSource=https%3A%2F%2Ffonts.googleapis.com%2Fcss%3Ffamily%3DArchitects%2BDaughter;fontSize=16;startArrow=classic;startFill=1;" edge="1" parent="1" source="dmZce5G8_erc-VPVWdEy-155">
          <mxGeometry relative="1" as="geometry">
            <mxPoint x="1450" y="530" as="targetPoint" />
          </mxGeometry>
        </mxCell>
        <mxCell id="dmZce5G8_erc-VPVWdEy-155" value="" style="shape=cylinder3;whiteSpace=wrap;html=1;boundedLbl=1;backgroundOutline=1;size=15;dashed=1;sketch=1;hachureGap=4;jiggle=2;fontFamily=Architects Daughter;fontSource=https%3A%2F%2Ffonts.googleapis.com%2Fcss%3Ffamily%3DArchitects%2BDaughter;fontSize=20;" vertex="1" parent="1">
          <mxGeometry x="1680" y="470" width="60" height="80" as="geometry" />
        </mxCell>
        <mxCell id="dmZce5G8_erc-VPVWdEy-184" style="edgeStyle=orthogonalEdgeStyle;curved=1;rounded=0;sketch=1;hachureGap=4;jiggle=2;orthogonalLoop=1;jettySize=auto;html=1;exitX=0.5;exitY=0;exitDx=0;exitDy=0;exitPerimeter=0;entryX=0.5;entryY=0;entryDx=0;entryDy=0;entryPerimeter=0;fontFamily=Architects Daughter;fontSource=https%3A%2F%2Ffonts.googleapis.com%2Fcss%3Ffamily%3DArchitects%2BDaughter;fontSize=16;" edge="1" parent="1" source="dmZce5G8_erc-VPVWdEy-156" target="dmZce5G8_erc-VPVWdEy-137">
          <mxGeometry relative="1" as="geometry" />
        </mxCell>
        <mxCell id="dmZce5G8_erc-VPVWdEy-156" value="" style="shape=cylinder3;whiteSpace=wrap;html=1;boundedLbl=1;backgroundOutline=1;size=15;dashed=1;sketch=1;hachureGap=4;jiggle=2;fontFamily=Architects Daughter;fontSource=https%3A%2F%2Ffonts.googleapis.com%2Fcss%3Ffamily%3DArchitects%2BDaughter;fontSize=20;" vertex="1" parent="1">
          <mxGeometry x="1790" y="470" width="60" height="80" as="geometry" />
        </mxCell>
        <mxCell id="dmZce5G8_erc-VPVWdEy-185" style="edgeStyle=orthogonalEdgeStyle;curved=1;rounded=0;sketch=1;hachureGap=4;jiggle=2;orthogonalLoop=1;jettySize=auto;html=1;entryX=0.5;entryY=0;entryDx=0;entryDy=0;entryPerimeter=0;fontFamily=Architects Daughter;fontSource=https%3A%2F%2Ffonts.googleapis.com%2Fcss%3Ffamily%3DArchitects%2BDaughter;fontSize=16;exitX=0.5;exitY=0;exitDx=0;exitDy=0;exitPerimeter=0;" edge="1" parent="1" source="dmZce5G8_erc-VPVWdEy-158" target="dmZce5G8_erc-VPVWdEy-137">
          <mxGeometry relative="1" as="geometry" />
        </mxCell>
        <mxCell id="dmZce5G8_erc-VPVWdEy-158" value="" style="shape=cylinder3;whiteSpace=wrap;html=1;boundedLbl=1;backgroundOutline=1;size=15;dashed=1;sketch=1;hachureGap=4;jiggle=2;fontFamily=Architects Daughter;fontSource=https%3A%2F%2Ffonts.googleapis.com%2Fcss%3Ffamily%3DArchitects%2BDaughter;fontSize=20;" vertex="1" parent="1">
          <mxGeometry x="1900" y="470" width="60" height="80" as="geometry" />
        </mxCell>
        <mxCell id="dmZce5G8_erc-VPVWdEy-160" value="consumer 1" style="text;html=1;strokeColor=none;fillColor=none;align=center;verticalAlign=middle;whiteSpace=wrap;rounded=0;dashed=1;sketch=1;hachureGap=4;jiggle=2;fontFamily=Architects Daughter;fontSource=https%3A%2F%2Ffonts.googleapis.com%2Fcss%3Ffamily%3DArchitects%2BDaughter;fontSize=20;" vertex="1" parent="1">
          <mxGeometry x="1640" y="570" width="140" as="geometry" />
        </mxCell>
        <mxCell id="dmZce5G8_erc-VPVWdEy-161" value="consumer 2" style="text;html=1;strokeColor=none;fillColor=none;align=center;verticalAlign=middle;whiteSpace=wrap;rounded=0;dashed=1;sketch=1;hachureGap=4;jiggle=2;fontFamily=Architects Daughter;fontSource=https%3A%2F%2Ffonts.googleapis.com%2Fcss%3Ffamily%3DArchitects%2BDaughter;fontSize=20;" vertex="1" parent="1">
          <mxGeometry x="1760" y="570" width="140" as="geometry" />
        </mxCell>
        <mxCell id="dmZce5G8_erc-VPVWdEy-162" value="consumer 3" style="text;html=1;strokeColor=none;fillColor=none;align=center;verticalAlign=middle;whiteSpace=wrap;rounded=0;dashed=1;sketch=1;hachureGap=4;jiggle=2;fontFamily=Architects Daughter;fontSource=https%3A%2F%2Ffonts.googleapis.com%2Fcss%3Ffamily%3DArchitects%2BDaughter;fontSize=20;" vertex="1" parent="1">
          <mxGeometry x="1880" y="570" width="140" as="geometry" />
        </mxCell>
        <mxCell id="dmZce5G8_erc-VPVWdEy-168" style="edgeStyle=orthogonalEdgeStyle;curved=1;rounded=0;sketch=1;hachureGap=4;jiggle=2;orthogonalLoop=1;jettySize=auto;html=1;fontFamily=Architects Daughter;fontSource=https%3A%2F%2Ffonts.googleapis.com%2Fcss%3Ffamily%3DArchitects%2BDaughter;fontSize=16;exitX=0.5;exitY=0;exitDx=0;exitDy=0;exitPerimeter=0;startArrow=classic;startFill=1;" edge="1" parent="1" source="dmZce5G8_erc-VPVWdEy-163">
          <mxGeometry relative="1" as="geometry">
            <mxPoint x="1520" y="190" as="targetPoint" />
          </mxGeometry>
        </mxCell>
        <mxCell id="dmZce5G8_erc-VPVWdEy-170" style="edgeStyle=orthogonalEdgeStyle;curved=1;rounded=0;sketch=1;hachureGap=4;jiggle=2;orthogonalLoop=1;jettySize=auto;html=1;exitX=0.5;exitY=0;exitDx=0;exitDy=0;exitPerimeter=0;fontFamily=Architects Daughter;fontSource=https%3A%2F%2Ffonts.googleapis.com%2Fcss%3Ffamily%3DArchitects%2BDaughter;fontSize=16;startArrow=classic;startFill=1;" edge="1" parent="1" source="dmZce5G8_erc-VPVWdEy-163" target="dmZce5G8_erc-VPVWdEy-138">
          <mxGeometry relative="1" as="geometry" />
        </mxCell>
        <mxCell id="dmZce5G8_erc-VPVWdEy-171" style="edgeStyle=orthogonalEdgeStyle;curved=1;rounded=0;sketch=1;hachureGap=4;jiggle=2;orthogonalLoop=1;jettySize=auto;html=1;fontFamily=Architects Daughter;fontSource=https%3A%2F%2Ffonts.googleapis.com%2Fcss%3Ffamily%3DArchitects%2BDaughter;fontSize=16;exitX=0.5;exitY=0;exitDx=0;exitDy=0;exitPerimeter=0;startArrow=classic;startFill=1;" edge="1" parent="1" source="dmZce5G8_erc-VPVWdEy-163">
          <mxGeometry relative="1" as="geometry">
            <mxPoint x="1200" y="200" as="targetPoint" />
          </mxGeometry>
        </mxCell>
        <mxCell id="dmZce5G8_erc-VPVWdEy-187" value="data&amp;nbsp;sync" style="edgeStyle=orthogonalEdgeStyle;curved=1;rounded=0;sketch=1;hachureGap=4;jiggle=2;orthogonalLoop=1;jettySize=auto;html=1;exitX=1;exitY=0.5;exitDx=0;exitDy=0;exitPerimeter=0;entryX=1;entryY=0.5;entryDx=0;entryDy=0;entryPerimeter=0;fontFamily=Architects Daughter;fontSource=https%3A%2F%2Ffonts.googleapis.com%2Fcss%3Ffamily%3DArchitects%2BDaughter;fontSize=16;" edge="1" parent="1" source="dmZce5G8_erc-VPVWdEy-163" target="dmZce5G8_erc-VPVWdEy-153">
          <mxGeometry relative="1" as="geometry" />
        </mxCell>
        <mxCell id="dmZce5G8_erc-VPVWdEy-163" value="" style="shape=cylinder3;whiteSpace=wrap;html=1;boundedLbl=1;backgroundOutline=1;size=15;dashed=1;sketch=1;hachureGap=4;jiggle=2;fontFamily=Architects Daughter;fontSource=https%3A%2F%2Ffonts.googleapis.com%2Fcss%3Ffamily%3DArchitects%2BDaughter;fontSize=20;" vertex="1" parent="1">
          <mxGeometry x="1390" y="340" width="60" height="80" as="geometry" />
        </mxCell>
        <mxCell id="dmZce5G8_erc-VPVWdEy-164" value="master 2" style="text;html=1;strokeColor=none;fillColor=none;align=center;verticalAlign=middle;whiteSpace=wrap;rounded=0;dashed=1;sketch=1;hachureGap=4;jiggle=2;fontFamily=Architects Daughter;fontSource=https%3A%2F%2Ffonts.googleapis.com%2Fcss%3Ffamily%3DArchitects%2BDaughter;fontSize=20;" vertex="1" parent="1">
          <mxGeometry x="1360" y="440" width="140" as="geometry" />
        </mxCell>
        <mxCell id="dmZce5G8_erc-VPVWdEy-202" value="" style="shape=cylinder3;whiteSpace=wrap;html=1;boundedLbl=1;backgroundOutline=1;size=15;dashed=1;sketch=1;hachureGap=4;jiggle=2;fontFamily=Architects Daughter;fontSource=https%3A%2F%2Ffonts.googleapis.com%2Fcss%3Ffamily%3DArchitects%2BDaughter;fontSize=20;" vertex="1" parent="1">
          <mxGeometry x="1150" y="960" width="60" height="80" as="geometry" />
        </mxCell>
        <mxCell id="dmZce5G8_erc-VPVWdEy-203" value="nameserver 1" style="text;html=1;strokeColor=none;fillColor=none;align=center;verticalAlign=middle;whiteSpace=wrap;rounded=0;dashed=1;sketch=1;hachureGap=4;jiggle=2;fontFamily=Architects Daughter;fontSource=https%3A%2F%2Ffonts.googleapis.com%2Fcss%3Ffamily%3DArchitects%2BDaughter;fontSize=20;" vertex="1" parent="1">
          <mxGeometry x="1120" y="1060" width="140" as="geometry" />
        </mxCell>
        <mxCell id="dmZce5G8_erc-VPVWdEy-204" value="" style="shape=cylinder3;whiteSpace=wrap;html=1;boundedLbl=1;backgroundOutline=1;size=15;dashed=1;sketch=1;hachureGap=4;jiggle=2;fontFamily=Architects Daughter;fontSource=https%3A%2F%2Ffonts.googleapis.com%2Fcss%3Ffamily%3DArchitects%2BDaughter;fontSize=20;" vertex="1" parent="1">
          <mxGeometry x="1310" y="960" width="60" height="80" as="geometry" />
        </mxCell>
        <mxCell id="dmZce5G8_erc-VPVWdEy-205" value="nameserver 2" style="text;html=1;strokeColor=none;fillColor=none;align=center;verticalAlign=middle;whiteSpace=wrap;rounded=0;dashed=1;sketch=1;hachureGap=4;jiggle=2;fontFamily=Architects Daughter;fontSource=https%3A%2F%2Ffonts.googleapis.com%2Fcss%3Ffamily%3DArchitects%2BDaughter;fontSize=20;" vertex="1" parent="1">
          <mxGeometry x="1280" y="1060" width="140" as="geometry" />
        </mxCell>
        <mxCell id="dmZce5G8_erc-VPVWdEy-206" value="" style="shape=cylinder3;whiteSpace=wrap;html=1;boundedLbl=1;backgroundOutline=1;size=15;dashed=1;sketch=1;hachureGap=4;jiggle=2;fontFamily=Architects Daughter;fontSource=https%3A%2F%2Ffonts.googleapis.com%2Fcss%3Ffamily%3DArchitects%2BDaughter;fontSize=20;" vertex="1" parent="1">
          <mxGeometry x="1470" y="960" width="60" height="80" as="geometry" />
        </mxCell>
        <mxCell id="dmZce5G8_erc-VPVWdEy-207" value="nameserver 3" style="text;html=1;strokeColor=none;fillColor=none;align=center;verticalAlign=middle;whiteSpace=wrap;rounded=0;dashed=1;sketch=1;hachureGap=4;jiggle=2;fontFamily=Architects Daughter;fontSource=https%3A%2F%2Ffonts.googleapis.com%2Fcss%3Ffamily%3DArchitects%2BDaughter;fontSize=20;" vertex="1" parent="1">
          <mxGeometry x="1440" y="1060" width="140" as="geometry" />
        </mxCell>
        <mxCell id="dmZce5G8_erc-VPVWdEy-208" style="edgeStyle=orthogonalEdgeStyle;curved=1;rounded=0;sketch=1;hachureGap=4;jiggle=2;orthogonalLoop=1;jettySize=auto;html=1;entryX=0.5;entryY=0;entryDx=0;entryDy=0;entryPerimeter=0;fontFamily=Architects Daughter;fontSource=https%3A%2F%2Ffonts.googleapis.com%2Fcss%3Ffamily%3DArchitects%2BDaughter;fontSize=16;exitX=0.5;exitY=0;exitDx=0;exitDy=0;exitPerimeter=0;startArrow=classic;startFill=1;" edge="1" parent="1" source="dmZce5G8_erc-VPVWdEy-209" target="dmZce5G8_erc-VPVWdEy-202">
          <mxGeometry relative="1" as="geometry" />
        </mxCell>
        <mxCell id="dmZce5G8_erc-VPVWdEy-209" value="" style="shape=cylinder3;whiteSpace=wrap;html=1;boundedLbl=1;backgroundOutline=1;size=15;dashed=1;sketch=1;hachureGap=4;jiggle=2;fontFamily=Architects Daughter;fontSource=https%3A%2F%2Ffonts.googleapis.com%2Fcss%3Ffamily%3DArchitects%2BDaughter;fontSize=20;" vertex="1" parent="1">
          <mxGeometry x="537" y="1310" width="60" height="80" as="geometry" />
        </mxCell>
        <mxCell id="dmZce5G8_erc-VPVWdEy-210" value="pruducer1" style="text;html=1;strokeColor=none;fillColor=none;align=center;verticalAlign=middle;whiteSpace=wrap;rounded=0;dashed=1;sketch=1;hachureGap=4;jiggle=2;fontFamily=Architects Daughter;fontSource=https%3A%2F%2Ffonts.googleapis.com%2Fcss%3Ffamily%3DArchitects%2BDaughter;fontSize=20;" vertex="1" parent="1">
          <mxGeometry x="500" y="1410" width="140" as="geometry" />
        </mxCell>
        <mxCell id="dmZce5G8_erc-VPVWdEy-211" style="edgeStyle=orthogonalEdgeStyle;curved=1;rounded=0;sketch=1;hachureGap=4;jiggle=2;orthogonalLoop=1;jettySize=auto;html=1;entryX=0.5;entryY=0;entryDx=0;entryDy=0;entryPerimeter=0;fontFamily=Architects Daughter;fontSource=https%3A%2F%2Ffonts.googleapis.com%2Fcss%3Ffamily%3DArchitects%2BDaughter;fontSize=16;exitX=0.5;exitY=0;exitDx=0;exitDy=0;exitPerimeter=0;startArrow=classic;startFill=1;" edge="1" parent="1" source="dmZce5G8_erc-VPVWdEy-212" target="dmZce5G8_erc-VPVWdEy-204">
          <mxGeometry relative="1" as="geometry" />
        </mxCell>
        <mxCell id="dmZce5G8_erc-VPVWdEy-212" value="" style="shape=cylinder3;whiteSpace=wrap;html=1;boundedLbl=1;backgroundOutline=1;size=15;dashed=1;sketch=1;hachureGap=4;jiggle=2;fontFamily=Architects Daughter;fontSource=https%3A%2F%2Ffonts.googleapis.com%2Fcss%3Ffamily%3DArchitects%2BDaughter;fontSize=20;" vertex="1" parent="1">
          <mxGeometry x="647" y="1310" width="60" height="80" as="geometry" />
        </mxCell>
        <mxCell id="dmZce5G8_erc-VPVWdEy-213" value="pruducer2" style="text;html=1;strokeColor=none;fillColor=none;align=center;verticalAlign=middle;whiteSpace=wrap;rounded=0;dashed=1;sketch=1;hachureGap=4;jiggle=2;fontFamily=Architects Daughter;fontSource=https%3A%2F%2Ffonts.googleapis.com%2Fcss%3Ffamily%3DArchitects%2BDaughter;fontSize=20;" vertex="1" parent="1">
          <mxGeometry x="610" y="1410" width="140" as="geometry" />
        </mxCell>
        <mxCell id="dmZce5G8_erc-VPVWdEy-214" style="edgeStyle=orthogonalEdgeStyle;curved=1;rounded=0;sketch=1;hachureGap=4;jiggle=2;orthogonalLoop=1;jettySize=auto;html=1;entryX=0.5;entryY=0;entryDx=0;entryDy=0;entryPerimeter=0;fontFamily=Architects Daughter;fontSource=https%3A%2F%2Ffonts.googleapis.com%2Fcss%3Ffamily%3DArchitects%2BDaughter;fontSize=16;exitX=0.5;exitY=0;exitDx=0;exitDy=0;exitPerimeter=0;startArrow=classic;startFill=1;" edge="1" parent="1" source="dmZce5G8_erc-VPVWdEy-216" target="dmZce5G8_erc-VPVWdEy-202">
          <mxGeometry relative="1" as="geometry" />
        </mxCell>
        <mxCell id="dmZce5G8_erc-VPVWdEy-215" style="edgeStyle=orthogonalEdgeStyle;curved=1;rounded=0;sketch=1;hachureGap=4;jiggle=2;orthogonalLoop=1;jettySize=auto;html=1;entryX=0;entryY=0.5;entryDx=0;entryDy=0;entryPerimeter=0;fontFamily=Architects Daughter;fontSource=https%3A%2F%2Ffonts.googleapis.com%2Fcss%3Ffamily%3DArchitects%2BDaughter;fontSize=16;startArrow=classic;startFill=1;" edge="1" parent="1" source="dmZce5G8_erc-VPVWdEy-216" target="dmZce5G8_erc-VPVWdEy-222">
          <mxGeometry relative="1" as="geometry" />
        </mxCell>
        <mxCell id="dmZce5G8_erc-VPVWdEy-216" value="" style="shape=cylinder3;whiteSpace=wrap;html=1;boundedLbl=1;backgroundOutline=1;size=15;dashed=1;sketch=1;hachureGap=4;jiggle=2;fontFamily=Architects Daughter;fontSource=https%3A%2F%2Ffonts.googleapis.com%2Fcss%3Ffamily%3DArchitects%2BDaughter;fontSize=20;" vertex="1" parent="1">
          <mxGeometry x="757" y="1310" width="60" height="80" as="geometry" />
        </mxCell>
        <mxCell id="dmZce5G8_erc-VPVWdEy-217" value="pruducer3" style="text;html=1;strokeColor=none;fillColor=none;align=center;verticalAlign=middle;whiteSpace=wrap;rounded=0;dashed=1;sketch=1;hachureGap=4;jiggle=2;fontFamily=Architects Daughter;fontSource=https%3A%2F%2Ffonts.googleapis.com%2Fcss%3Ffamily%3DArchitects%2BDaughter;fontSize=20;" vertex="1" parent="1">
          <mxGeometry x="721" y="1410" width="140" as="geometry" />
        </mxCell>
        <mxCell id="dmZce5G8_erc-VPVWdEy-218" style="edgeStyle=orthogonalEdgeStyle;curved=1;rounded=0;sketch=1;hachureGap=4;jiggle=2;orthogonalLoop=1;jettySize=auto;html=1;fontFamily=Architects Daughter;fontSource=https%3A%2F%2Ffonts.googleapis.com%2Fcss%3Ffamily%3DArchitects%2BDaughter;fontSize=16;startArrow=classic;startFill=1;" edge="1" parent="1" source="dmZce5G8_erc-VPVWdEy-222" target="dmZce5G8_erc-VPVWdEy-203">
          <mxGeometry relative="1" as="geometry" />
        </mxCell>
        <mxCell id="dmZce5G8_erc-VPVWdEy-219" style="edgeStyle=orthogonalEdgeStyle;curved=1;rounded=0;sketch=1;hachureGap=4;jiggle=2;orthogonalLoop=1;jettySize=auto;html=1;exitX=0.5;exitY=0;exitDx=0;exitDy=0;exitPerimeter=0;fontFamily=Architects Daughter;fontSource=https%3A%2F%2Ffonts.googleapis.com%2Fcss%3Ffamily%3DArchitects%2BDaughter;fontSize=16;startArrow=classic;startFill=1;" edge="1" parent="1" source="dmZce5G8_erc-VPVWdEy-222" target="dmZce5G8_erc-VPVWdEy-205">
          <mxGeometry relative="1" as="geometry" />
        </mxCell>
        <mxCell id="dmZce5G8_erc-VPVWdEy-220" style="edgeStyle=orthogonalEdgeStyle;curved=1;rounded=0;sketch=1;hachureGap=4;jiggle=2;orthogonalLoop=1;jettySize=auto;html=1;exitX=0.5;exitY=0;exitDx=0;exitDy=0;exitPerimeter=0;fontFamily=Architects Daughter;fontSource=https%3A%2F%2Ffonts.googleapis.com%2Fcss%3Ffamily%3DArchitects%2BDaughter;fontSize=16;startArrow=classic;startFill=1;" edge="1" parent="1" source="dmZce5G8_erc-VPVWdEy-222" target="dmZce5G8_erc-VPVWdEy-207">
          <mxGeometry relative="1" as="geometry" />
        </mxCell>
        <mxCell id="dmZce5G8_erc-VPVWdEy-221" value="data&amp;nbsp;sync" style="edgeStyle=orthogonalEdgeStyle;curved=1;rounded=0;sketch=1;hachureGap=4;jiggle=2;orthogonalLoop=1;jettySize=auto;html=1;entryX=0;entryY=0.5;entryDx=0;entryDy=0;entryPerimeter=0;fontFamily=Architects Daughter;fontSource=https%3A%2F%2Ffonts.googleapis.com%2Fcss%3Ffamily%3DArchitects%2BDaughter;fontSize=16;exitX=0;exitY=0.5;exitDx=0;exitDy=0;exitPerimeter=0;" edge="1" parent="1" source="dmZce5G8_erc-VPVWdEy-222" target="dmZce5G8_erc-VPVWdEy-227">
          <mxGeometry relative="1" as="geometry" />
        </mxCell>
        <mxCell id="dmZce5G8_erc-VPVWdEy-222" value="" style="shape=cylinder3;whiteSpace=wrap;html=1;boundedLbl=1;backgroundOutline=1;size=15;dashed=1;sketch=1;hachureGap=4;jiggle=2;fontFamily=Architects Daughter;fontSource=https%3A%2F%2Ffonts.googleapis.com%2Fcss%3Ffamily%3DArchitects%2BDaughter;fontSize=20;" vertex="1" parent="1">
          <mxGeometry x="1190" y="1210" width="60" height="80" as="geometry" />
        </mxCell>
        <mxCell id="dmZce5G8_erc-VPVWdEy-223" value="master 1" style="text;html=1;strokeColor=none;fillColor=none;align=center;verticalAlign=middle;whiteSpace=wrap;rounded=0;dashed=1;sketch=1;hachureGap=4;jiggle=2;fontFamily=Architects Daughter;fontSource=https%3A%2F%2Ffonts.googleapis.com%2Fcss%3Ffamily%3DArchitects%2BDaughter;fontSize=20;" vertex="1" parent="1">
          <mxGeometry x="1160" y="1310" width="140" as="geometry" />
        </mxCell>
        <mxCell id="dmZce5G8_erc-VPVWdEy-224" value="routing&amp;nbsp;info" style="edgeStyle=orthogonalEdgeStyle;curved=1;rounded=0;sketch=1;hachureGap=4;jiggle=2;orthogonalLoop=1;jettySize=auto;html=1;fontFamily=Architects Daughter;fontSource=https%3A%2F%2Ffonts.googleapis.com%2Fcss%3Ffamily%3DArchitects%2BDaughter;fontSize=16;startArrow=classic;startFill=1;" edge="1" parent="1" source="dmZce5G8_erc-VPVWdEy-227">
          <mxGeometry relative="1" as="geometry">
            <mxPoint x="1130" y="1070" as="targetPoint" />
          </mxGeometry>
        </mxCell>
        <mxCell id="dmZce5G8_erc-VPVWdEy-225" style="edgeStyle=orthogonalEdgeStyle;curved=1;rounded=0;sketch=1;hachureGap=4;jiggle=2;orthogonalLoop=1;jettySize=auto;html=1;fontFamily=Architects Daughter;fontSource=https%3A%2F%2Ffonts.googleapis.com%2Fcss%3Ffamily%3DArchitects%2BDaughter;fontSize=16;startArrow=classic;startFill=1;" edge="1" parent="1" source="dmZce5G8_erc-VPVWdEy-227">
          <mxGeometry relative="1" as="geometry">
            <mxPoint x="1350" y="1070" as="targetPoint" />
          </mxGeometry>
        </mxCell>
        <mxCell id="dmZce5G8_erc-VPVWdEy-226" style="edgeStyle=orthogonalEdgeStyle;curved=1;rounded=0;sketch=1;hachureGap=4;jiggle=2;orthogonalLoop=1;jettySize=auto;html=1;fontFamily=Architects Daughter;fontSource=https%3A%2F%2Ffonts.googleapis.com%2Fcss%3Ffamily%3DArchitects%2BDaughter;fontSize=16;startArrow=classic;startFill=1;" edge="1" parent="1" source="dmZce5G8_erc-VPVWdEy-227">
          <mxGeometry relative="1" as="geometry">
            <mxPoint x="1510" y="1070" as="targetPoint" />
          </mxGeometry>
        </mxCell>
        <mxCell id="dmZce5G8_erc-VPVWdEy-227" value="" style="shape=cylinder3;whiteSpace=wrap;html=1;boundedLbl=1;backgroundOutline=1;size=15;dashed=1;sketch=1;hachureGap=4;jiggle=2;fontFamily=Architects Daughter;fontSource=https%3A%2F%2Ffonts.googleapis.com%2Fcss%3Ffamily%3DArchitects%2BDaughter;fontSize=20;" vertex="1" parent="1">
          <mxGeometry x="1190" y="1360" width="60" height="80" as="geometry" />
        </mxCell>
        <mxCell id="dmZce5G8_erc-VPVWdEy-228" value="slave 1" style="text;html=1;strokeColor=none;fillColor=none;align=center;verticalAlign=middle;whiteSpace=wrap;rounded=0;dashed=1;sketch=1;hachureGap=4;jiggle=2;fontFamily=Architects Daughter;fontSource=https%3A%2F%2Ffonts.googleapis.com%2Fcss%3Ffamily%3DArchitects%2BDaughter;fontSize=20;" vertex="1" parent="1">
          <mxGeometry x="1160" y="1460" width="140" as="geometry" />
        </mxCell>
        <mxCell id="dmZce5G8_erc-VPVWdEy-229" style="edgeStyle=orthogonalEdgeStyle;curved=1;rounded=0;sketch=1;hachureGap=4;jiggle=2;orthogonalLoop=1;jettySize=auto;html=1;fontFamily=Architects Daughter;fontSource=https%3A%2F%2Ffonts.googleapis.com%2Fcss%3Ffamily%3DArchitects%2BDaughter;fontSize=16;" edge="1" parent="1" source="dmZce5G8_erc-VPVWdEy-232">
          <mxGeometry relative="1" as="geometry">
            <mxPoint x="1510" y="1070" as="targetPoint" />
          </mxGeometry>
        </mxCell>
        <mxCell id="dmZce5G8_erc-VPVWdEy-230" style="edgeStyle=orthogonalEdgeStyle;curved=1;rounded=0;sketch=1;hachureGap=4;jiggle=2;orthogonalLoop=1;jettySize=auto;html=1;fontFamily=Architects Daughter;fontSource=https%3A%2F%2Ffonts.googleapis.com%2Fcss%3Ffamily%3DArchitects%2BDaughter;fontSize=16;startArrow=classic;startFill=1;" edge="1" parent="1" source="dmZce5G8_erc-VPVWdEy-232">
          <mxGeometry relative="1" as="geometry">
            <mxPoint x="1350" y="1070" as="targetPoint" />
          </mxGeometry>
        </mxCell>
        <mxCell id="dmZce5G8_erc-VPVWdEy-231" style="edgeStyle=orthogonalEdgeStyle;curved=1;rounded=0;sketch=1;hachureGap=4;jiggle=2;orthogonalLoop=1;jettySize=auto;html=1;fontFamily=Architects Daughter;fontSource=https%3A%2F%2Ffonts.googleapis.com%2Fcss%3Ffamily%3DArchitects%2BDaughter;fontSize=16;startArrow=classic;startFill=1;" edge="1" parent="1" source="dmZce5G8_erc-VPVWdEy-232">
          <mxGeometry relative="1" as="geometry">
            <mxPoint x="1190" y="1070" as="targetPoint" />
          </mxGeometry>
        </mxCell>
        <mxCell id="dmZce5G8_erc-VPVWdEy-232" value="" style="shape=cylinder3;whiteSpace=wrap;html=1;boundedLbl=1;backgroundOutline=1;size=15;dashed=1;sketch=1;hachureGap=4;jiggle=2;fontFamily=Architects Daughter;fontSource=https%3A%2F%2Ffonts.googleapis.com%2Fcss%3Ffamily%3DArchitects%2BDaughter;fontSize=20;" vertex="1" parent="1">
          <mxGeometry x="1380" y="1360" width="60" height="80" as="geometry" />
        </mxCell>
        <mxCell id="dmZce5G8_erc-VPVWdEy-233" value="slave 2" style="text;html=1;strokeColor=none;fillColor=none;align=center;verticalAlign=middle;whiteSpace=wrap;rounded=0;dashed=1;sketch=1;hachureGap=4;jiggle=2;fontFamily=Architects Daughter;fontSource=https%3A%2F%2Ffonts.googleapis.com%2Fcss%3Ffamily%3DArchitects%2BDaughter;fontSize=20;" vertex="1" parent="1">
          <mxGeometry x="1350" y="1460" width="140" as="geometry" />
        </mxCell>
        <mxCell id="dmZce5G8_erc-VPVWdEy-234" style="edgeStyle=orthogonalEdgeStyle;curved=1;rounded=0;sketch=1;hachureGap=4;jiggle=2;orthogonalLoop=1;jettySize=auto;html=1;entryX=0.5;entryY=0;entryDx=0;entryDy=0;entryPerimeter=0;fontFamily=Architects Daughter;fontSource=https%3A%2F%2Ffonts.googleapis.com%2Fcss%3Ffamily%3DArchitects%2BDaughter;fontSize=16;exitX=0.5;exitY=0;exitDx=0;exitDy=0;exitPerimeter=0;" edge="1" parent="1" source="dmZce5G8_erc-VPVWdEy-237" target="dmZce5G8_erc-VPVWdEy-206">
          <mxGeometry relative="1" as="geometry" />
        </mxCell>
        <mxCell id="dmZce5G8_erc-VPVWdEy-235" style="edgeStyle=orthogonalEdgeStyle;curved=1;rounded=0;sketch=1;hachureGap=4;jiggle=2;orthogonalLoop=1;jettySize=auto;html=1;entryX=1;entryY=0.5;entryDx=0;entryDy=0;entryPerimeter=0;fontFamily=Architects Daughter;fontSource=https%3A%2F%2Ffonts.googleapis.com%2Fcss%3Ffamily%3DArchitects%2BDaughter;fontSize=16;startArrow=classic;startFill=1;" edge="1" parent="1" source="dmZce5G8_erc-VPVWdEy-237" target="dmZce5G8_erc-VPVWdEy-249">
          <mxGeometry relative="1" as="geometry" />
        </mxCell>
        <mxCell id="dmZce5G8_erc-VPVWdEy-236" style="edgeStyle=orthogonalEdgeStyle;curved=1;rounded=0;sketch=1;hachureGap=4;jiggle=2;orthogonalLoop=1;jettySize=auto;html=1;exitX=0;exitY=0.5;exitDx=0;exitDy=0;exitPerimeter=0;fontFamily=Architects Daughter;fontSource=https%3A%2F%2Ffonts.googleapis.com%2Fcss%3Ffamily%3DArchitects%2BDaughter;fontSize=16;startArrow=classic;startFill=1;" edge="1" parent="1" source="dmZce5G8_erc-VPVWdEy-237">
          <mxGeometry relative="1" as="geometry">
            <mxPoint x="1440" y="1400" as="targetPoint" />
          </mxGeometry>
        </mxCell>
        <mxCell id="dmZce5G8_erc-VPVWdEy-237" value="" style="shape=cylinder3;whiteSpace=wrap;html=1;boundedLbl=1;backgroundOutline=1;size=15;dashed=1;sketch=1;hachureGap=4;jiggle=2;fontFamily=Architects Daughter;fontSource=https%3A%2F%2Ffonts.googleapis.com%2Fcss%3Ffamily%3DArchitects%2BDaughter;fontSize=20;" vertex="1" parent="1">
          <mxGeometry x="1670" y="1340" width="60" height="80" as="geometry" />
        </mxCell>
        <mxCell id="dmZce5G8_erc-VPVWdEy-238" style="edgeStyle=orthogonalEdgeStyle;curved=1;rounded=0;sketch=1;hachureGap=4;jiggle=2;orthogonalLoop=1;jettySize=auto;html=1;exitX=0.5;exitY=0;exitDx=0;exitDy=0;exitPerimeter=0;entryX=0.5;entryY=0;entryDx=0;entryDy=0;entryPerimeter=0;fontFamily=Architects Daughter;fontSource=https%3A%2F%2Ffonts.googleapis.com%2Fcss%3Ffamily%3DArchitects%2BDaughter;fontSize=16;" edge="1" parent="1" source="dmZce5G8_erc-VPVWdEy-239" target="dmZce5G8_erc-VPVWdEy-204">
          <mxGeometry relative="1" as="geometry" />
        </mxCell>
        <mxCell id="dmZce5G8_erc-VPVWdEy-239" value="" style="shape=cylinder3;whiteSpace=wrap;html=1;boundedLbl=1;backgroundOutline=1;size=15;dashed=1;sketch=1;hachureGap=4;jiggle=2;fontFamily=Architects Daughter;fontSource=https%3A%2F%2Ffonts.googleapis.com%2Fcss%3Ffamily%3DArchitects%2BDaughter;fontSize=20;" vertex="1" parent="1">
          <mxGeometry x="1780" y="1340" width="60" height="80" as="geometry" />
        </mxCell>
        <mxCell id="dmZce5G8_erc-VPVWdEy-240" style="edgeStyle=orthogonalEdgeStyle;curved=1;rounded=0;sketch=1;hachureGap=4;jiggle=2;orthogonalLoop=1;jettySize=auto;html=1;entryX=0.5;entryY=0;entryDx=0;entryDy=0;entryPerimeter=0;fontFamily=Architects Daughter;fontSource=https%3A%2F%2Ffonts.googleapis.com%2Fcss%3Ffamily%3DArchitects%2BDaughter;fontSize=16;exitX=0.5;exitY=0;exitDx=0;exitDy=0;exitPerimeter=0;" edge="1" parent="1" source="dmZce5G8_erc-VPVWdEy-241" target="dmZce5G8_erc-VPVWdEy-204">
          <mxGeometry relative="1" as="geometry" />
        </mxCell>
        <mxCell id="dmZce5G8_erc-VPVWdEy-241" value="" style="shape=cylinder3;whiteSpace=wrap;html=1;boundedLbl=1;backgroundOutline=1;size=15;dashed=1;sketch=1;hachureGap=4;jiggle=2;fontFamily=Architects Daughter;fontSource=https%3A%2F%2Ffonts.googleapis.com%2Fcss%3Ffamily%3DArchitects%2BDaughter;fontSize=20;" vertex="1" parent="1">
          <mxGeometry x="1890" y="1340" width="60" height="80" as="geometry" />
        </mxCell>
        <mxCell id="dmZce5G8_erc-VPVWdEy-242" value="consumer 1" style="text;html=1;strokeColor=none;fillColor=none;align=center;verticalAlign=middle;whiteSpace=wrap;rounded=0;dashed=1;sketch=1;hachureGap=4;jiggle=2;fontFamily=Architects Daughter;fontSource=https%3A%2F%2Ffonts.googleapis.com%2Fcss%3Ffamily%3DArchitects%2BDaughter;fontSize=20;" vertex="1" parent="1">
          <mxGeometry x="1630" y="1440" width="140" as="geometry" />
        </mxCell>
        <mxCell id="dmZce5G8_erc-VPVWdEy-243" value="consumer 2" style="text;html=1;strokeColor=none;fillColor=none;align=center;verticalAlign=middle;whiteSpace=wrap;rounded=0;dashed=1;sketch=1;hachureGap=4;jiggle=2;fontFamily=Architects Daughter;fontSource=https%3A%2F%2Ffonts.googleapis.com%2Fcss%3Ffamily%3DArchitects%2BDaughter;fontSize=20;" vertex="1" parent="1">
          <mxGeometry x="1750" y="1440" width="140" as="geometry" />
        </mxCell>
        <mxCell id="dmZce5G8_erc-VPVWdEy-244" value="consumer 3" style="text;html=1;strokeColor=none;fillColor=none;align=center;verticalAlign=middle;whiteSpace=wrap;rounded=0;dashed=1;sketch=1;hachureGap=4;jiggle=2;fontFamily=Architects Daughter;fontSource=https%3A%2F%2Ffonts.googleapis.com%2Fcss%3Ffamily%3DArchitects%2BDaughter;fontSize=20;" vertex="1" parent="1">
          <mxGeometry x="1870" y="1440" width="140" as="geometry" />
        </mxCell>
        <mxCell id="dmZce5G8_erc-VPVWdEy-245" style="edgeStyle=orthogonalEdgeStyle;curved=1;rounded=0;sketch=1;hachureGap=4;jiggle=2;orthogonalLoop=1;jettySize=auto;html=1;fontFamily=Architects Daughter;fontSource=https%3A%2F%2Ffonts.googleapis.com%2Fcss%3Ffamily%3DArchitects%2BDaughter;fontSize=16;exitX=0.5;exitY=0;exitDx=0;exitDy=0;exitPerimeter=0;startArrow=classic;startFill=1;" edge="1" parent="1" source="dmZce5G8_erc-VPVWdEy-249">
          <mxGeometry relative="1" as="geometry">
            <mxPoint x="1510" y="1060" as="targetPoint" />
          </mxGeometry>
        </mxCell>
        <mxCell id="dmZce5G8_erc-VPVWdEy-246" style="edgeStyle=orthogonalEdgeStyle;curved=1;rounded=0;sketch=1;hachureGap=4;jiggle=2;orthogonalLoop=1;jettySize=auto;html=1;exitX=0.5;exitY=0;exitDx=0;exitDy=0;exitPerimeter=0;fontFamily=Architects Daughter;fontSource=https%3A%2F%2Ffonts.googleapis.com%2Fcss%3Ffamily%3DArchitects%2BDaughter;fontSize=16;startArrow=classic;startFill=1;" edge="1" parent="1" source="dmZce5G8_erc-VPVWdEy-249" target="dmZce5G8_erc-VPVWdEy-205">
          <mxGeometry relative="1" as="geometry" />
        </mxCell>
        <mxCell id="dmZce5G8_erc-VPVWdEy-247" style="edgeStyle=orthogonalEdgeStyle;curved=1;rounded=0;sketch=1;hachureGap=4;jiggle=2;orthogonalLoop=1;jettySize=auto;html=1;fontFamily=Architects Daughter;fontSource=https%3A%2F%2Ffonts.googleapis.com%2Fcss%3Ffamily%3DArchitects%2BDaughter;fontSize=16;exitX=0.5;exitY=0;exitDx=0;exitDy=0;exitPerimeter=0;startArrow=classic;startFill=1;" edge="1" parent="1" source="dmZce5G8_erc-VPVWdEy-249">
          <mxGeometry relative="1" as="geometry">
            <mxPoint x="1190" y="1070" as="targetPoint" />
          </mxGeometry>
        </mxCell>
        <mxCell id="dmZce5G8_erc-VPVWdEy-248" value="data&amp;nbsp;sync" style="edgeStyle=orthogonalEdgeStyle;curved=1;rounded=0;sketch=1;hachureGap=4;jiggle=2;orthogonalLoop=1;jettySize=auto;html=1;exitX=1;exitY=0.5;exitDx=0;exitDy=0;exitPerimeter=0;entryX=1;entryY=0.5;entryDx=0;entryDy=0;entryPerimeter=0;fontFamily=Architects Daughter;fontSource=https%3A%2F%2Ffonts.googleapis.com%2Fcss%3Ffamily%3DArchitects%2BDaughter;fontSize=16;" edge="1" parent="1" source="dmZce5G8_erc-VPVWdEy-249" target="dmZce5G8_erc-VPVWdEy-232">
          <mxGeometry relative="1" as="geometry" />
        </mxCell>
        <mxCell id="dmZce5G8_erc-VPVWdEy-249" value="" style="shape=cylinder3;whiteSpace=wrap;html=1;boundedLbl=1;backgroundOutline=1;size=15;dashed=1;sketch=1;hachureGap=4;jiggle=2;fontFamily=Architects Daughter;fontSource=https%3A%2F%2Ffonts.googleapis.com%2Fcss%3Ffamily%3DArchitects%2BDaughter;fontSize=20;" vertex="1" parent="1">
          <mxGeometry x="1380" y="1210" width="60" height="80" as="geometry" />
        </mxCell>
        <mxCell id="dmZce5G8_erc-VPVWdEy-250" value="master 2" style="text;html=1;strokeColor=none;fillColor=none;align=center;verticalAlign=middle;whiteSpace=wrap;rounded=0;dashed=1;sketch=1;hachureGap=4;jiggle=2;fontFamily=Architects Daughter;fontSource=https%3A%2F%2Ffonts.googleapis.com%2Fcss%3Ffamily%3DArchitects%2BDaughter;fontSize=20;" vertex="1" parent="1">
          <mxGeometry x="1350" y="1310" width="140" as="geometry" />
        </mxCell>
        <mxCell id="dmZce5G8_erc-VPVWdEy-252" value="" style="rounded=0;whiteSpace=wrap;html=1;sketch=1;hachureGap=4;jiggle=2;fontFamily=Architects Daughter;fontSource=https%3A%2F%2Ffonts.googleapis.com%2Fcss%3Ffamily%3DArchitects%2BDaughter;fontSize=20;" vertex="1" parent="1">
          <mxGeometry x="490" y="1630" width="1161.5" height="630" as="geometry" />
        </mxCell>
        <mxCell id="dmZce5G8_erc-VPVWdEy-264" value="data&amp;nbsp;sync" style="edgeStyle=orthogonalEdgeStyle;curved=1;rounded=0;sketch=1;hachureGap=4;jiggle=2;orthogonalLoop=1;jettySize=auto;html=1;entryX=0;entryY=0.5;entryDx=0;entryDy=0;fontFamily=Architects Daughter;fontSource=https%3A%2F%2Ffonts.googleapis.com%2Fcss%3Ffamily%3DArchitects%2BDaughter;fontSize=16;startArrow=classic;startFill=1;exitX=0;exitY=0.5;exitDx=0;exitDy=0;" edge="1" parent="1" source="dmZce5G8_erc-VPVWdEy-253" target="dmZce5G8_erc-VPVWdEy-255">
          <mxGeometry relative="1" as="geometry">
            <Array as="points">
              <mxPoint x="590" y="1715" />
              <mxPoint x="590" y="1995" />
              <mxPoint x="670" y="1995" />
            </Array>
          </mxGeometry>
        </mxCell>
        <mxCell id="dmZce5G8_erc-VPVWdEy-253" value="" style="rounded=0;whiteSpace=wrap;html=1;sketch=1;hachureGap=4;jiggle=2;fontFamily=Architects Daughter;fontSource=https%3A%2F%2Ffonts.googleapis.com%2Fcss%3Ffamily%3DArchitects%2BDaughter;fontSize=20;fillColor=#dae8fc;strokeColor=#6c8ebf;" vertex="1" parent="1">
          <mxGeometry x="670" y="1660" width="943" height="110" as="geometry" />
        </mxCell>
        <mxCell id="dmZce5G8_erc-VPVWdEy-265" value="data&amp;nbsp;sync" style="edgeStyle=orthogonalEdgeStyle;curved=1;rounded=0;sketch=1;hachureGap=4;jiggle=2;orthogonalLoop=1;jettySize=auto;html=1;exitX=0;exitY=0.5;exitDx=0;exitDy=0;entryX=0;entryY=0.5;entryDx=0;entryDy=0;fontFamily=Architects Daughter;fontSource=https%3A%2F%2Ffonts.googleapis.com%2Fcss%3Ffamily%3DArchitects%2BDaughter;fontSize=16;startArrow=classic;startFill=1;" edge="1" parent="1" source="dmZce5G8_erc-VPVWdEy-254" target="dmZce5G8_erc-VPVWdEy-256">
          <mxGeometry relative="1" as="geometry">
            <Array as="points">
              <mxPoint x="670" y="1861" />
              <mxPoint x="580" y="1861" />
              <mxPoint x="580" y="2145" />
              <mxPoint x="660" y="2145" />
            </Array>
          </mxGeometry>
        </mxCell>
        <mxCell id="dmZce5G8_erc-VPVWdEy-254" value="" style="rounded=0;whiteSpace=wrap;html=1;sketch=1;hachureGap=4;jiggle=2;fontFamily=Architects Daughter;fontSource=https%3A%2F%2Ffonts.googleapis.com%2Fcss%3Ffamily%3DArchitects%2BDaughter;fontSize=20;fillColor=#dae8fc;strokeColor=#6c8ebf;" vertex="1" parent="1">
          <mxGeometry x="670" y="1806" width="943" height="114" as="geometry" />
        </mxCell>
        <mxCell id="dmZce5G8_erc-VPVWdEy-255" value="" style="rounded=0;whiteSpace=wrap;html=1;sketch=1;hachureGap=4;jiggle=2;fontFamily=Architects Daughter;fontSource=https%3A%2F%2Ffonts.googleapis.com%2Fcss%3Ffamily%3DArchitects%2BDaughter;fontSize=20;fillColor=#d5e8d4;strokeColor=#82b366;" vertex="1" parent="1">
          <mxGeometry x="670" y="1950" width="933" height="120" as="geometry" />
        </mxCell>
        <mxCell id="dmZce5G8_erc-VPVWdEy-256" value="" style="rounded=0;whiteSpace=wrap;html=1;sketch=1;hachureGap=4;jiggle=2;fontFamily=Architects Daughter;fontSource=https%3A%2F%2Ffonts.googleapis.com%2Fcss%3Ffamily%3DArchitects%2BDaughter;fontSize=20;glass=0;shadow=0;fillColor=#d5e8d4;strokeColor=#82b366;" vertex="1" parent="1">
          <mxGeometry x="660" y="2110" width="943" height="110" as="geometry" />
        </mxCell>
        <mxCell id="dmZce5G8_erc-VPVWdEy-257" value="" style="rounded=1;whiteSpace=wrap;html=1;shadow=0;glass=0;sketch=1;hachureGap=4;jiggle=2;fontFamily=Architects Daughter;fontSource=https%3A%2F%2Ffonts.googleapis.com%2Fcss%3Ffamily%3DArchitects%2BDaughter;fontSize=20;fillColor=#EA6B66;" vertex="1" parent="1">
          <mxGeometry x="850" y="1680" width="340" height="220" as="geometry" />
        </mxCell>
        <mxCell id="dmZce5G8_erc-VPVWdEy-258" value="" style="rounded=1;whiteSpace=wrap;html=1;shadow=0;glass=0;sketch=1;hachureGap=4;jiggle=2;fontFamily=Architects Daughter;fontSource=https%3A%2F%2Ffonts.googleapis.com%2Fcss%3Ffamily%3DArchitects%2BDaughter;fontSize=20;fillColor=#EA6B66;" vertex="1" parent="1">
          <mxGeometry x="1240" y="1680" width="340" height="220" as="geometry" />
        </mxCell>
        <mxCell id="dmZce5G8_erc-VPVWdEy-259" value="queue01" style="rounded=0;whiteSpace=wrap;html=1;shadow=0;glass=0;sketch=1;hachureGap=4;jiggle=2;fontFamily=Architects Daughter;fontSource=https%3A%2F%2Ffonts.googleapis.com%2Fcss%3Ffamily%3DArchitects%2BDaughter;fontSize=20;fillColor=#FFD966;" vertex="1" parent="1">
          <mxGeometry x="877" y="1700" width="120" height="60" as="geometry" />
        </mxCell>
        <mxCell id="dmZce5G8_erc-VPVWdEy-260" value="queue02" style="rounded=0;whiteSpace=wrap;html=1;shadow=0;glass=0;sketch=1;hachureGap=4;jiggle=2;fontFamily=Architects Daughter;fontSource=https%3A%2F%2Ffonts.googleapis.com%2Fcss%3Ffamily%3DArchitects%2BDaughter;fontSize=20;fillColor=#FFD966;" vertex="1" parent="1">
          <mxGeometry x="1050" y="1700" width="120" height="60" as="geometry" />
        </mxCell>
        <mxCell id="dmZce5G8_erc-VPVWdEy-261" value="queue03" style="rounded=0;whiteSpace=wrap;html=1;shadow=0;glass=0;sketch=1;hachureGap=4;jiggle=2;fontFamily=Architects Daughter;fontSource=https%3A%2F%2Ffonts.googleapis.com%2Fcss%3Ffamily%3DArchitects%2BDaughter;fontSize=20;fillColor=#FFD966;" vertex="1" parent="1">
          <mxGeometry x="877" y="1820" width="120" height="60" as="geometry" />
        </mxCell>
        <mxCell id="dmZce5G8_erc-VPVWdEy-262" value="queue04" style="rounded=0;whiteSpace=wrap;html=1;shadow=0;glass=0;sketch=1;hachureGap=4;jiggle=2;fontFamily=Architects Daughter;fontSource=https%3A%2F%2Ffonts.googleapis.com%2Fcss%3Ffamily%3DArchitects%2BDaughter;fontSize=20;fillColor=#FFD966;" vertex="1" parent="1">
          <mxGeometry x="1050" y="1820" width="120" height="60" as="geometry" />
        </mxCell>
        <mxCell id="dmZce5G8_erc-VPVWdEy-266" value="" style="rounded=1;whiteSpace=wrap;html=1;shadow=0;glass=0;sketch=1;hachureGap=4;jiggle=2;fontFamily=Architects Daughter;fontSource=https%3A%2F%2Ffonts.googleapis.com%2Fcss%3Ffamily%3DArchitects%2BDaughter;fontSize=20;fillColor=#EA6B66;" vertex="1" parent="1">
          <mxGeometry x="850" y="1980" width="340" height="220" as="geometry" />
        </mxCell>
        <mxCell id="dmZce5G8_erc-VPVWdEy-267" value="queue01" style="rounded=0;whiteSpace=wrap;html=1;shadow=0;glass=0;sketch=1;hachureGap=4;jiggle=2;fontFamily=Architects Daughter;fontSource=https%3A%2F%2Ffonts.googleapis.com%2Fcss%3Ffamily%3DArchitects%2BDaughter;fontSize=20;fillColor=#FFD966;" vertex="1" parent="1">
          <mxGeometry x="877" y="2000" width="120" height="60" as="geometry" />
        </mxCell>
        <mxCell id="dmZce5G8_erc-VPVWdEy-268" value="queue02" style="rounded=0;whiteSpace=wrap;html=1;shadow=0;glass=0;sketch=1;hachureGap=4;jiggle=2;fontFamily=Architects Daughter;fontSource=https%3A%2F%2Ffonts.googleapis.com%2Fcss%3Ffamily%3DArchitects%2BDaughter;fontSize=20;fillColor=#FFD966;" vertex="1" parent="1">
          <mxGeometry x="1050" y="2000" width="120" height="60" as="geometry" />
        </mxCell>
        <mxCell id="dmZce5G8_erc-VPVWdEy-269" value="queue03" style="rounded=0;whiteSpace=wrap;html=1;shadow=0;glass=0;sketch=1;hachureGap=4;jiggle=2;fontFamily=Architects Daughter;fontSource=https%3A%2F%2Ffonts.googleapis.com%2Fcss%3Ffamily%3DArchitects%2BDaughter;fontSize=20;fillColor=#FFD966;" vertex="1" parent="1">
          <mxGeometry x="877" y="2120" width="120" height="60" as="geometry" />
        </mxCell>
        <mxCell id="dmZce5G8_erc-VPVWdEy-270" value="queue04" style="rounded=0;whiteSpace=wrap;html=1;shadow=0;glass=0;sketch=1;hachureGap=4;jiggle=2;fontFamily=Architects Daughter;fontSource=https%3A%2F%2Ffonts.googleapis.com%2Fcss%3Ffamily%3DArchitects%2BDaughter;fontSize=20;fillColor=#FFD966;" vertex="1" parent="1">
          <mxGeometry x="1050" y="2120" width="120" height="60" as="geometry" />
        </mxCell>
        <mxCell id="dmZce5G8_erc-VPVWdEy-271" value="queue01" style="rounded=0;whiteSpace=wrap;html=1;shadow=0;glass=0;sketch=1;hachureGap=4;jiggle=2;fontFamily=Architects Daughter;fontSource=https%3A%2F%2Ffonts.googleapis.com%2Fcss%3Ffamily%3DArchitects%2BDaughter;fontSize=20;fillColor=#FFD966;" vertex="1" parent="1">
          <mxGeometry x="1270" y="1700" width="120" height="60" as="geometry" />
        </mxCell>
        <mxCell id="dmZce5G8_erc-VPVWdEy-272" value="queue02" style="rounded=0;whiteSpace=wrap;html=1;shadow=0;glass=0;sketch=1;hachureGap=4;jiggle=2;fontFamily=Architects Daughter;fontSource=https%3A%2F%2Ffonts.googleapis.com%2Fcss%3Ffamily%3DArchitects%2BDaughter;fontSize=20;fillColor=#FFD966;" vertex="1" parent="1">
          <mxGeometry x="1443" y="1700" width="120" height="60" as="geometry" />
        </mxCell>
        <mxCell id="dmZce5G8_erc-VPVWdEy-273" value="queue03" style="rounded=0;whiteSpace=wrap;html=1;shadow=0;glass=0;sketch=1;hachureGap=4;jiggle=2;fontFamily=Architects Daughter;fontSource=https%3A%2F%2Ffonts.googleapis.com%2Fcss%3Ffamily%3DArchitects%2BDaughter;fontSize=20;fillColor=#FFD966;" vertex="1" parent="1">
          <mxGeometry x="1270" y="1820" width="120" height="60" as="geometry" />
        </mxCell>
        <mxCell id="dmZce5G8_erc-VPVWdEy-274" value="queue04" style="rounded=0;whiteSpace=wrap;html=1;shadow=0;glass=0;sketch=1;hachureGap=4;jiggle=2;fontFamily=Architects Daughter;fontSource=https%3A%2F%2Ffonts.googleapis.com%2Fcss%3Ffamily%3DArchitects%2BDaughter;fontSize=20;fillColor=#FFD966;" vertex="1" parent="1">
          <mxGeometry x="1443" y="1820" width="120" height="60" as="geometry" />
        </mxCell>
        <mxCell id="dmZce5G8_erc-VPVWdEy-275" value="TopicA" style="text;html=1;strokeColor=none;fillColor=none;align=center;verticalAlign=middle;whiteSpace=wrap;rounded=0;shadow=0;glass=0;sketch=1;hachureGap=4;jiggle=2;fontFamily=Architects Daughter;fontSource=https%3A%2F%2Ffonts.googleapis.com%2Fcss%3Ffamily%3DArchitects%2BDaughter;fontSize=20;" vertex="1" parent="1">
          <mxGeometry x="997" y="1770" width="60" height="30" as="geometry" />
        </mxCell>
        <mxCell id="dmZce5G8_erc-VPVWdEy-276" value="TopicA" style="text;html=1;strokeColor=none;fillColor=none;align=center;verticalAlign=middle;whiteSpace=wrap;rounded=0;shadow=0;glass=0;sketch=1;hachureGap=4;jiggle=2;fontFamily=Architects Daughter;fontSource=https%3A%2F%2Ffonts.googleapis.com%2Fcss%3Ffamily%3DArchitects%2BDaughter;fontSize=20;" vertex="1" parent="1">
          <mxGeometry x="990" y="2075" width="60" height="30" as="geometry" />
        </mxCell>
        <mxCell id="dmZce5G8_erc-VPVWdEy-277" value="TopicB" style="text;html=1;strokeColor=none;fillColor=none;align=center;verticalAlign=middle;whiteSpace=wrap;rounded=0;shadow=0;glass=0;sketch=1;hachureGap=4;jiggle=2;fontFamily=Architects Daughter;fontSource=https%3A%2F%2Ffonts.googleapis.com%2Fcss%3Ffamily%3DArchitects%2BDaughter;fontSize=20;" vertex="1" parent="1">
          <mxGeometry x="1390" y="1770" width="60" height="30" as="geometry" />
        </mxCell>
        <mxCell id="dmZce5G8_erc-VPVWdEy-278" value="" style="rounded=1;whiteSpace=wrap;html=1;shadow=0;glass=0;sketch=1;hachureGap=4;jiggle=2;fontFamily=Architects Daughter;fontSource=https%3A%2F%2Ffonts.googleapis.com%2Fcss%3Ffamily%3DArchitects%2BDaughter;fontSize=20;fillColor=#EA6B66;" vertex="1" parent="1">
          <mxGeometry x="1240" y="1980" width="340" height="220" as="geometry" />
        </mxCell>
        <mxCell id="dmZce5G8_erc-VPVWdEy-279" value="queue01" style="rounded=0;whiteSpace=wrap;html=1;shadow=0;glass=0;sketch=1;hachureGap=4;jiggle=2;fontFamily=Architects Daughter;fontSource=https%3A%2F%2Ffonts.googleapis.com%2Fcss%3Ffamily%3DArchitects%2BDaughter;fontSize=20;fillColor=#FFD966;" vertex="1" parent="1">
          <mxGeometry x="1270" y="2000" width="120" height="60" as="geometry" />
        </mxCell>
        <mxCell id="dmZce5G8_erc-VPVWdEy-280" value="queue02" style="rounded=0;whiteSpace=wrap;html=1;shadow=0;glass=0;sketch=1;hachureGap=4;jiggle=2;fontFamily=Architects Daughter;fontSource=https%3A%2F%2Ffonts.googleapis.com%2Fcss%3Ffamily%3DArchitects%2BDaughter;fontSize=20;fillColor=#FFD966;" vertex="1" parent="1">
          <mxGeometry x="1443" y="2000" width="120" height="60" as="geometry" />
        </mxCell>
        <mxCell id="dmZce5G8_erc-VPVWdEy-281" value="queue03" style="rounded=0;whiteSpace=wrap;html=1;shadow=0;glass=0;sketch=1;hachureGap=4;jiggle=2;fontFamily=Architects Daughter;fontSource=https%3A%2F%2Ffonts.googleapis.com%2Fcss%3Ffamily%3DArchitects%2BDaughter;fontSize=20;fillColor=#FFD966;" vertex="1" parent="1">
          <mxGeometry x="1270" y="2120" width="120" height="60" as="geometry" />
        </mxCell>
        <mxCell id="dmZce5G8_erc-VPVWdEy-282" value="queue04" style="rounded=0;whiteSpace=wrap;html=1;shadow=0;glass=0;sketch=1;hachureGap=4;jiggle=2;fontFamily=Architects Daughter;fontSource=https%3A%2F%2Ffonts.googleapis.com%2Fcss%3Ffamily%3DArchitects%2BDaughter;fontSize=20;fillColor=#FFD966;" vertex="1" parent="1">
          <mxGeometry x="1443" y="2120" width="120" height="60" as="geometry" />
        </mxCell>
        <mxCell id="dmZce5G8_erc-VPVWdEy-283" value="TopicB" style="text;html=1;strokeColor=none;fillColor=none;align=center;verticalAlign=middle;whiteSpace=wrap;rounded=0;shadow=0;glass=0;sketch=1;hachureGap=4;jiggle=2;fontFamily=Architects Daughter;fontSource=https%3A%2F%2Ffonts.googleapis.com%2Fcss%3Ffamily%3DArchitects%2BDaughter;fontSize=20;" vertex="1" parent="1">
          <mxGeometry x="1390" y="2070" width="60" height="30" as="geometry" />
        </mxCell>
        <mxCell id="dmZce5G8_erc-VPVWdEy-284" value="&lt;font style=&quot;font-size: 14px;&quot;&gt;brokerName: brokerA&lt;br&gt;brokerId: 0&lt;/font&gt;" style="text;html=1;strokeColor=none;fillColor=none;align=left;verticalAlign=middle;whiteSpace=wrap;rounded=0;shadow=0;glass=0;sketch=1;hachureGap=4;jiggle=2;fontFamily=Architects Daughter;fontSource=https%3A%2F%2Ffonts.googleapis.com%2Fcss%3Ffamily%3DArchitects%2BDaughter;fontSize=20;" vertex="1" parent="1">
          <mxGeometry x="680" y="1710" width="230" height="25" as="geometry" />
        </mxCell>
        <mxCell id="dmZce5G8_erc-VPVWdEy-288" value="Broker&amp;nbsp;Cluster" style="text;html=1;strokeColor=none;fillColor=none;align=center;verticalAlign=middle;whiteSpace=wrap;rounded=0;shadow=0;glass=0;sketch=1;hachureGap=4;jiggle=2;fontFamily=Architects Daughter;fontSource=https%3A%2F%2Ffonts.googleapis.com%2Fcss%3Ffamily%3DArchitects%2BDaughter;fontSize=20;" vertex="1" parent="1">
          <mxGeometry x="560" y="1650" width="60" height="30" as="geometry" />
        </mxCell>
        <mxCell id="dmZce5G8_erc-VPVWdEy-289" value="MasterA" style="rounded=1;whiteSpace=wrap;html=1;shadow=0;glass=0;sketch=1;hachureGap=4;jiggle=2;fontFamily=Architects Daughter;fontSource=https%3A%2F%2Ffonts.googleapis.com%2Fcss%3Ffamily%3DArchitects%2BDaughter;fontSize=20;fillColor=#dae8fc;strokeColor=#6c8ebf;" vertex="1" parent="1">
          <mxGeometry x="680" y="1640" width="120" height="60" as="geometry" />
        </mxCell>
        <mxCell id="dmZce5G8_erc-VPVWdEy-290" value="MasterB" style="rounded=1;whiteSpace=wrap;html=1;shadow=0;glass=0;sketch=1;hachureGap=4;jiggle=2;fontFamily=Architects Daughter;fontSource=https%3A%2F%2Ffonts.googleapis.com%2Fcss%3Ffamily%3DArchitects%2BDaughter;fontSize=20;fillColor=#dae8fc;strokeColor=#6c8ebf;" vertex="1" parent="1">
          <mxGeometry x="680" y="1780" width="120" height="60" as="geometry" />
        </mxCell>
        <mxCell id="dmZce5G8_erc-VPVWdEy-291" value="&lt;font style=&quot;font-size: 14px;&quot;&gt;brokerName: brokerB&lt;br&gt;brokerId: 0&lt;/font&gt;" style="text;html=1;strokeColor=none;fillColor=none;align=left;verticalAlign=middle;whiteSpace=wrap;rounded=0;shadow=0;glass=0;sketch=1;hachureGap=4;jiggle=2;fontFamily=Architects Daughter;fontSource=https%3A%2F%2Ffonts.googleapis.com%2Fcss%3Ffamily%3DArchitects%2BDaughter;fontSize=20;" vertex="1" parent="1">
          <mxGeometry x="680" y="1848" width="230" height="25" as="geometry" />
        </mxCell>
        <mxCell id="dmZce5G8_erc-VPVWdEy-292" value="SlaveA" style="rounded=1;whiteSpace=wrap;html=1;shadow=0;glass=0;sketch=1;hachureGap=4;jiggle=2;fontFamily=Architects Daughter;fontSource=https%3A%2F%2Ffonts.googleapis.com%2Fcss%3Ffamily%3DArchitects%2BDaughter;fontSize=20;fillColor=#d5e8d4;strokeColor=#82b366;" vertex="1" parent="1">
          <mxGeometry x="680" y="1930" width="120" height="60" as="geometry" />
        </mxCell>
        <mxCell id="dmZce5G8_erc-VPVWdEy-293" value="&lt;font style=&quot;font-size: 14px;&quot;&gt;brokerName: brokerA&lt;br&gt;brokerId:&amp;nbsp;is&amp;nbsp;not 0&lt;/font&gt;" style="text;html=1;strokeColor=none;fillColor=none;align=left;verticalAlign=middle;whiteSpace=wrap;rounded=0;shadow=0;glass=0;sketch=1;hachureGap=4;jiggle=2;fontFamily=Architects Daughter;fontSource=https%3A%2F%2Ffonts.googleapis.com%2Fcss%3Ffamily%3DArchitects%2BDaughter;fontSize=20;" vertex="1" parent="1">
          <mxGeometry x="682" y="2010" width="230" height="25" as="geometry" />
        </mxCell>
        <mxCell id="dmZce5G8_erc-VPVWdEy-294" value="SlaveB" style="rounded=1;whiteSpace=wrap;html=1;shadow=0;glass=0;sketch=1;hachureGap=4;jiggle=2;fontFamily=Architects Daughter;fontSource=https%3A%2F%2Ffonts.googleapis.com%2Fcss%3Ffamily%3DArchitects%2BDaughter;fontSize=20;fillColor=#d5e8d4;strokeColor=#82b366;" vertex="1" parent="1">
          <mxGeometry x="670" y="2090" width="120" height="60" as="geometry" />
        </mxCell>
        <mxCell id="dmZce5G8_erc-VPVWdEy-295" value="&lt;font style=&quot;font-size: 14px;&quot;&gt;brokerName: brokerB&lt;br&gt;brokerId:&amp;nbsp;is&amp;nbsp;not 0&lt;/font&gt;" style="text;html=1;strokeColor=none;fillColor=none;align=left;verticalAlign=middle;whiteSpace=wrap;rounded=0;shadow=0;glass=0;sketch=1;hachureGap=4;jiggle=2;fontFamily=Architects Daughter;fontSource=https%3A%2F%2Ffonts.googleapis.com%2Fcss%3Ffamily%3DArchitects%2BDaughter;fontSize=20;" vertex="1" parent="1">
          <mxGeometry x="670" y="2170" width="230" height="25" as="geometry" />
        </mxCell>
        <mxCell id="dmZce5G8_erc-VPVWdEy-296" value="&lt;h1&gt;broker、topic&amp;nbsp;and&amp;nbsp;queue&lt;/h1&gt;&lt;p&gt;1.&amp;nbsp;一个&amp;nbsp;topic&amp;nbsp;包含多个 queue（分区）&lt;/p&gt;&lt;p&gt;2.&amp;nbsp;一个&amp;nbsp;topic&amp;nbsp;的&amp;nbsp;多个&amp;nbsp;queue&amp;nbsp;可以发布在&amp;nbsp;多个&amp;nbsp;broker&amp;nbsp;节点上 （类似于kafka&amp;nbsp;的&amp;nbsp;partition）&lt;/p&gt;" style="text;html=1;strokeColor=none;fillColor=none;spacing=5;spacingTop=-20;whiteSpace=wrap;overflow=hidden;rounded=0;shadow=0;glass=0;sketch=1;hachureGap=4;jiggle=2;fontFamily=Architects Daughter;fontSource=https%3A%2F%2Ffonts.googleapis.com%2Fcss%3Ffamily%3DArchitects%2BDaughter;fontSize=14;" vertex="1" parent="1">
          <mxGeometry x="90" y="1635" width="360" height="160" as="geometry" />
        </mxCell>
        <mxCell id="dmZce5G8_erc-VPVWdEy-297" value="&lt;h1&gt;Master&amp;nbsp;and&amp;nbsp;Slave&lt;/h1&gt;&lt;p&gt;1.&amp;nbsp;一个&amp;nbsp;master&amp;nbsp;可以&amp;nbsp;有多个&amp;nbsp;slave，一个slave&amp;nbsp;只能属于一个&amp;nbsp;master&lt;/p&gt;&lt;p&gt;2.&amp;nbsp;master&amp;nbsp;与&amp;nbsp;slave&amp;nbsp;的关系&amp;nbsp;通过&amp;nbsp;指定一样的&amp;nbsp;brokerName&amp;nbsp;和&amp;nbsp;不通的&amp;nbsp;brokerId ，其中&amp;nbsp;brokerId = 0&amp;nbsp;为&amp;nbsp;master&lt;/p&gt;&lt;p&gt;3.&amp;nbsp;master&amp;nbsp;与&amp;nbsp;slave&amp;nbsp;数据同步，针对的是&amp;nbsp;broker&amp;nbsp;级别的，不同于&amp;nbsp;kafka&amp;nbsp;是针对&amp;nbsp;partition&lt;/p&gt;&lt;p&gt;4. master&amp;nbsp;和&amp;nbsp;slave&amp;nbsp;是&amp;nbsp;broker&amp;nbsp;级别的，不同于&amp;nbsp;kafka&amp;nbsp;的&amp;nbsp;leader&amp;nbsp;和&amp;nbsp;follow&amp;nbsp;是&amp;nbsp;partition&amp;nbsp;级别的&lt;/p&gt;" style="text;html=1;strokeColor=none;fillColor=none;spacing=5;spacingTop=-20;whiteSpace=wrap;overflow=hidden;rounded=0;shadow=0;glass=0;sketch=1;hachureGap=4;jiggle=2;fontFamily=Architects Daughter;fontSource=https%3A%2F%2Ffonts.googleapis.com%2Fcss%3Ffamily%3DArchitects%2BDaughter;fontSize=14;" vertex="1" parent="1">
          <mxGeometry x="160" y="1820" width="310" height="300" as="geometry" />
        </mxCell>
      </root>
    </mxGraphModel>
  </diagram>
</mxfile>
